<svg xmlns="http://www.w3.org/2000/svg" xmlns:xlink="http://www.w3.org/1999/xlink" width="287.471" height="273.944" viewBox="0 0 287.471 273.944">
  <defs>
    <filter id="Path_540" x="0" y="0" width="287.471" height="273.944" filterUnits="userSpaceOnUse">
      <feOffset dx="5" dy="5" input="SourceAlpha"/>
      <feGaussianBlur stdDeviation="0.5" result="blur"/>
      <feFlood flood-color="#fff" flood-opacity="0.2"/>
      <feComposite operator="in" in2="blur"/>
      <feComposite in="SourceGraphic"/>
    </filter>
    <filter id="Path_542" x="142.741" y="2.162" width="26.202" height="19.162" filterUnits="userSpaceOnUse">
      <feOffset dx="5" dy="5" input="SourceAlpha"/>
      <feGaussianBlur stdDeviation="0.5" result="blur-2"/>
      <feFlood flood-color="#1ae1ce" flood-opacity="0.2"/>
      <feComposite operator="in" in2="blur-2"/>
      <feComposite in="SourceGraphic"/>
    </filter>
    <filter id="Path_543" x="154.741" y="2.162" width="26.202" height="19.162" filterUnits="userSpaceOnUse">
      <feOffset dx="5" dy="5" input="SourceAlpha"/>
      <feGaussianBlur stdDeviation="0.5" result="blur-3"/>
      <feFlood flood-color="#1ae1ce" flood-opacity="0.2"/>
      <feComposite operator="in" in2="blur-3"/>
      <feComposite in="SourceGraphic"/>
    </filter>
    <filter id="Path_544" x="165.741" y="2.162" width="26.202" height="19.162" filterUnits="userSpaceOnUse">
      <feOffset dx="5" dy="5" input="SourceAlpha"/>
      <feGaussianBlur stdDeviation="0.5" result="blur-4"/>
      <feFlood flood-color="#1ae1ce" flood-opacity="0.2"/>
      <feComposite operator="in" in2="blur-4"/>
      <feComposite in="SourceGraphic"/>
    </filter>
    <filter id="Path_545" x="176.741" y="2.162" width="26.202" height="19.162" filterUnits="userSpaceOnUse">
      <feOffset dx="5" dy="5" input="SourceAlpha"/>
      <feGaussianBlur stdDeviation="0.5" result="blur-5"/>
      <feFlood flood-color="#1ae1ce" flood-opacity="0.2"/>
      <feComposite operator="in" in2="blur-5"/>
      <feComposite in="SourceGraphic"/>
    </filter>
  </defs>
  <g id="alert" transform="translate(0.5 0.5)">
    <g transform="matrix(1, 0, 0, 1, -0.5, -0.5)" filter="url(#Path_540)">
      <path id="Path_540-2" data-name="Path 540" d="M9008.5-251.857h135.982l16.145,16.145H9278.88l9.587,9.587V8.262l-6.324,6.324h-258.5L9008.5-.558Z" transform="translate(-9008 252.36)" fill="rgba(255,255,255,0.07)" stroke="#fff" stroke-width="1"/>
    </g>
    <path id="Path_541" data-name="Path 541" d="M9144.539-251.857h119.2l24.76,25.832" transform="translate(-9008.496 251.857)" fill="none" stroke="#fff" stroke-width="1"/>
    <g transform="matrix(1, 0, 0, 1, -0.5, -0.5)" filter="url(#Path_542)">
      <path id="Path_542-2" data-name="Path 542" d="M9150.944-249.7l11.662,11.662h5.626l-3.259-3.258-8.4-8.4Z" transform="translate(-9007 252.36)" fill="#1ae1ce" stroke="#1ae1ce" stroke-width="1"/>
    </g>
    <g transform="matrix(1, 0, 0, 1, -0.5, -0.5)" filter="url(#Path_543)">
      <path id="Path_543-2" data-name="Path 543" d="M9150.944-249.7l11.662,11.662h5.626l-3.259-3.258-8.4-8.4Z" transform="translate(-8995 252.36)" fill="#1ae1ce" stroke="#1ae1ce" stroke-width="1"/>
    </g>
    <g transform="matrix(1, 0, 0, 1, -0.5, -0.5)" filter="url(#Path_544)">
      <path id="Path_544-2" data-name="Path 544" d="M9150.944-249.7l11.662,11.662h5.626l-3.259-3.258-8.4-8.4Z" transform="translate(-8984 252.36)" fill="#1ae1ce" stroke="#1ae1ce" stroke-width="1"/>
    </g>
    <g transform="matrix(1, 0, 0, 1, -0.5, -0.5)" filter="url(#Path_545)">
      <path id="Path_545-2" data-name="Path 545" d="M9150.944-249.7l11.662,11.662h5.626l-3.259-3.258-8.4-8.4Z" transform="translate(-8973 252.36)" fill="#1ae1ce" stroke="#1ae1ce" stroke-width="1"/>
    </g>
  </g>
</svg>
