<svg xmlns="http://www.w3.org/2000/svg" xmlns:xlink="http://www.w3.org/1999/xlink" width="36.041" height="40.261" viewBox="0 0 36.041 40.261">
  <defs>
    <filter id="calendar" x="0" y="0" width="36.041" height="40.261" filterUnits="userSpaceOnUse">
      <feOffset dx="5" dy="5" input="SourceAlpha"/>
      <feGaussianBlur stdDeviation="0.5" result="blur"/>
      <feFlood flood-color="#fff" flood-opacity="0.2"/>
      <feComposite operator="in" in2="blur"/>
      <feComposite in="SourceGraphic"/>
    </filter>
  </defs>
  <g transform="matrix(1, 0, 0, 1, 0, 0)" filter="url(#calendar)">
    <path id="calendar-2" data-name="calendar" d="M.791,12.66H28.75a.794.794,0,0,1,.791.791V30.6a3.166,3.166,0,0,1-3.165,3.165H3.165A3.166,3.166,0,0,1,0,30.6V13.452A.794.794,0,0,1,.791,12.66Zm28.75-2.9V7.385A3.166,3.166,0,0,0,26.376,4.22H23.211V.791A.794.794,0,0,0,22.42,0H19.782a.794.794,0,0,0-.791.791V4.22H10.55V.791A.794.794,0,0,0,9.759,0H7.121A.794.794,0,0,0,6.33.791V4.22H3.165A3.166,3.166,0,0,0,0,7.385V9.759a.794.794,0,0,0,.791.791H28.75A.794.794,0,0,0,29.541,9.759Z" fill="#f1f1f1"/>
  </g>
</svg>
