<svg xmlns="http://www.w3.org/2000/svg" xmlns:xlink="http://www.w3.org/1999/xlink" width="449.915" height="350.539" viewBox="0 0 449.915 350.539">
  <defs>
    <filter id="Path_540" x="0" y="0" width="449.915" height="350.539" filterUnits="userSpaceOnUse">
      <feOffset dx="5" dy="5" input="SourceAlpha"/>
      <feGaussianBlur stdDeviation="0.5" result="blur"/>
      <feFlood flood-color="#fff" flood-opacity="0.2"/>
      <feComposite operator="in" in2="blur"/>
      <feComposite in="SourceGraphic"/>
    </filter>
    <filter id="Path_542" x="299.667" y="1.829" width="23.534" height="15.362" filterUnits="userSpaceOnUse">
      <feOffset dx="5" dy="3" input="SourceAlpha"/>
      <feGaussianBlur stdDeviation="0.5" result="blur-2"/>
      <feFlood flood-color="#215497" flood-opacity="0.2"/>
      <feComposite operator="in" in2="blur-2"/>
      <feComposite in="SourceGraphic"/>
    </filter>
    <filter id="Path_543" x="309.815" y="1.829" width="23.534" height="15.362" filterUnits="userSpaceOnUse">
      <feOffset dx="5" dy="3" input="SourceAlpha"/>
      <feGaussianBlur stdDeviation="0.5" result="blur-3"/>
      <feFlood flood-color="#215497" flood-opacity="0.2"/>
      <feComposite operator="in" in2="blur-3"/>
      <feComposite in="SourceGraphic"/>
    </filter>
    <filter id="Path_544" x="319.118" y="1.829" width="23.534" height="15.362" filterUnits="userSpaceOnUse">
      <feOffset dx="5" dy="3" input="SourceAlpha"/>
      <feGaussianBlur stdDeviation="0.5" result="blur-4"/>
      <feFlood flood-color="#215497" flood-opacity="0.2"/>
      <feComposite operator="in" in2="blur-4"/>
      <feComposite in="SourceGraphic"/>
    </filter>
    <filter id="Path_545" x="328.421" y="1.829" width="23.534" height="15.362" filterUnits="userSpaceOnUse">
      <feOffset dx="5" dy="3" input="SourceAlpha"/>
      <feGaussianBlur stdDeviation="0.5" result="blur-5"/>
      <feFlood flood-color="#215497" flood-opacity="0.2"/>
      <feComposite operator="in" in2="blur-5"/>
      <feComposite in="SourceGraphic"/>
    </filter>
  </defs>
  <g id="calendar" transform="translate(-1365.783 -339.643)">
    <g transform="matrix(1, 0, 0, 1, 1365.78, 339.64)" filter="url(#Path_540)">
      <path id="Path_540-2" data-name="Path 540" d="M8817.283-251.857h294.06L9125-238.2l126.594-.375,8.108,8.107-.461,315.929-5.349,5.349-423.8.375-12.809-12.808Z" transform="translate(-8816.78 252.36)" fill="rgba(255,255,255,0.07)" stroke="#fff" stroke-width="1"/>
    </g>
    <path id="Path_541" data-name="Path 541" d="M9144.539-251.857h127.41l20.939,21.846" transform="translate(-7484.145 592)" fill="none" stroke="#fff" stroke-width="1"/>
    <g transform="matrix(1, 0, 0, 1, 1365.78, 339.64)" filter="url(#Path_542)">
      <path id="Path_542-2" data-name="Path 542" d="M9150.944-249.7l9.862,9.862h4.758l-2.756-2.756L9155.7-249.7Z" transform="translate(-8850.07 252.02)" fill="#215497" stroke="#215497" stroke-width="1"/>
    </g>
    <g transform="matrix(1, 0, 0, 1, 1365.78, 339.64)" filter="url(#Path_543)">
      <path id="Path_543-2" data-name="Path 543" d="M9150.944-249.7l9.862,9.862h4.758l-2.756-2.756L9155.7-249.7Z" transform="translate(-8839.92 252.02)" fill="#215497" stroke="#215497" stroke-width="1"/>
    </g>
    <g transform="matrix(1, 0, 0, 1, 1365.78, 339.64)" filter="url(#Path_544)">
      <path id="Path_544-2" data-name="Path 544" d="M9150.944-249.7l9.862,9.862h4.758l-2.756-2.756L9155.7-249.7Z" transform="translate(-8830.62 252.02)" fill="#215497" stroke="#215497" stroke-width="1"/>
    </g>
    <g transform="matrix(1, 0, 0, 1, 1365.78, 339.64)" filter="url(#Path_545)">
      <path id="Path_545-2" data-name="Path 545" d="M9150.944-249.7l9.862,9.862h4.758l-2.756-2.756L9155.7-249.7Z" transform="translate(-8821.32 252.02)" fill="#215497" stroke="#215497" stroke-width="1"/>
    </g>
  </g>
</svg>
