<svg xmlns="http://www.w3.org/2000/svg" xmlns:xlink="http://www.w3.org/1999/xlink" width="39.188" height="36.944" viewBox="0 0 39.188 36.944">
  <defs>
    <filter id="Subtraction_1" x="0" y="1.444" width="35.5" height="35.5" filterUnits="userSpaceOnUse">
      <feOffset dx="5" dy="5" input="SourceAlpha"/>
      <feGaussianBlur stdDeviation="0.5" result="blur"/>
      <feFlood flood-color="#fff" flood-opacity="0.102"/>
      <feComposite operator="in" in2="blur"/>
      <feComposite in="SourceGraphic"/>
    </filter>
    <filter id="Subtraction_2" x="6" y="7.444" width="24.5" height="24.5" filterUnits="userSpaceOnUse">
      <feOffset dx="5" dy="5" input="SourceAlpha"/>
      <feGaussianBlur stdDeviation="0.5" result="blur-2"/>
      <feFlood flood-color="#fff" flood-opacity="0.102"/>
      <feComposite operator="in" in2="blur-2"/>
      <feComposite in="SourceGraphic"/>
    </filter>
    <filter id="Ellipse_20" x="12" y="13.444" width="12.5" height="12.5" filterUnits="userSpaceOnUse">
      <feOffset dx="5" dy="5" input="SourceAlpha"/>
      <feGaussianBlur stdDeviation="0.5" result="blur-3"/>
      <feFlood flood-color="#fff" flood-opacity="0.102"/>
      <feComposite operator="in" in2="blur-3"/>
      <feComposite in="SourceGraphic"/>
    </filter>
    <filter id="Path_63" x="20.95" y="0" width="18.238" height="18.365" filterUnits="userSpaceOnUse">
      <feOffset dx="5" dy="5" input="SourceAlpha"/>
      <feGaussianBlur stdDeviation="0.5" result="blur-4"/>
      <feFlood flood-color="#fff" flood-opacity="0.102"/>
      <feComposite operator="in" in2="blur-4"/>
      <feComposite in="SourceGraphic"/>
    </filter>
    <filter id="Path_62" x="14.516" y="4.071" width="20.301" height="20.264" filterUnits="userSpaceOnUse">
      <feOffset dx="5" dy="5" input="SourceAlpha"/>
      <feGaussianBlur stdDeviation="0.5" result="blur-5"/>
      <feFlood flood-color="#fff" flood-opacity="0.102"/>
      <feComposite operator="in" in2="blur-5"/>
      <feComposite in="SourceGraphic"/>
    </filter>
  </defs>
  <g id="challenge" transform="translate(0 0.994)">
    <g id="Group_43" data-name="Group 43" transform="translate(0 0.45)">
      <g transform="matrix(1, 0, 0, 1, 0, -1.44)" filter="url(#Subtraction_1)">
        <path id="Subtraction_1-2" data-name="Subtraction 1" d="M14.5,29A14.5,14.5,0,0,1,8.856,1.139,14.5,14.5,0,0,1,20.144,27.861,14.409,14.409,0,0,1,14.5,29Zm.213-26.015A11.728,11.728,0,1,0,26.441,14.713,11.741,11.741,0,0,0,14.713,2.985Z" transform="translate(0 1.44)" fill="#f1f1f1"/>
      </g>
      <g transform="matrix(1, 0, 0, 1, 0, -1.44)" filter="url(#Subtraction_2)">
        <path id="Subtraction_2-2" data-name="Subtraction 2" d="M9,18A9,9,0,0,1,2.636,2.636,9,9,0,0,1,15.364,15.364,8.941,8.941,0,0,1,9,18ZM9,3.073A5.927,5.927,0,1,0,14.927,9,5.933,5.933,0,0,0,9,3.073Z" transform="translate(6 7.44)" fill="#f1f1f1"/>
      </g>
      <g transform="matrix(1, 0, 0, 1, 0, -1.44)" filter="url(#Ellipse_20)">
        <circle id="Ellipse_20-2" data-name="Ellipse 20" cx="3" cy="3" r="3" transform="translate(12 13.44)" fill="#f1f1f1"/>
      </g>
    </g>
    <g transform="matrix(1, 0, 0, 1, 0, -0.99)" filter="url(#Path_63)">
      <path id="Path_63-2" data-name="Path 63" d="M2162.051-298.856l5.059-4.594.655,4.187,4.52.931-5.175,5.234-5.059-.49Z" transform="translate(-2140.6 304.44)" fill="#f1f1f1" stroke="#f1f1f1" stroke-width="1"/>
    </g>
    <g transform="matrix(1, 0, 0, 1, 0, -0.99)" filter="url(#Path_62)">
      <path id="Path_62-2" data-name="Path 62" d="M2147-282.549,2160.1-295.6" transform="translate(-2132.13 300.03)" fill="#f1f1f1" stroke="#f1f1f1" stroke-width="1"/>
    </g>
  </g>
</svg>
