<svg xmlns="http://www.w3.org/2000/svg" xmlns:xlink="http://www.w3.org/1999/xlink" width="26.836" height="30.186" viewBox="0 0 26.836 30.186">
  <defs>
    <filter id="Path_582" x="0" y="6.183" width="26.836" height="24.003" filterUnits="userSpaceOnUse">
      <feOffset dx="5" dy="5" input="SourceAlpha"/>
      <feGaussianBlur stdDeviation="0.5" result="blur"/>
      <feFlood flood-color="#e612a5" flood-opacity="0.2"/>
      <feComposite operator="in" in2="blur"/>
      <feComposite in="SourceGraphic"/>
    </filter>
    <filter id="Path_583" x="6.331" y="0" width="13.5" height="13.5" filterUnits="userSpaceOnUse">
      <feOffset dx="5" dy="5" input="SourceAlpha"/>
      <feGaussianBlur stdDeviation="0.5" result="blur-2"/>
      <feFlood flood-color="#e612a5" flood-opacity="0.2"/>
      <feComposite operator="in" in2="blur-2"/>
      <feComposite in="SourceGraphic"/>
    </filter>
  </defs>
  <g id="medit" transform="translate(-678.669 -976)">
    <g transform="matrix(1, 0, 0, 1, 678.67, 976)" filter="url(#Path_582)">
      <path id="Path_582-2" data-name="Path 582" d="M4836.466,987.272l-3.371,1.685a31.408,31.408,0,0,0-1.476,3.9c-.23,1.112-.534,3.485-.534,3.485l2.917,2.269-6.158,3.177a8.3,8.3,0,0,0-.176,1.541,2.451,2.451,0,0,0,.69,1.441l9.705-1.441,9.1,1.441a8.965,8.965,0,0,0,.567-1.441,9.212,9.212,0,0,0,.275-1.541l-6.547-3.177,2.982-2.269a19.207,19.207,0,0,0-.162-3.485c-.384-1.726-.9-3.579-1.329-3.9a24.592,24.592,0,0,0-4.084-1.685Z" transform="translate(-4827.67 -981.09)" fill="#c75ec3"/>
    </g>
    <g transform="matrix(1, 0, 0, 1, 678.67, 976)" filter="url(#Path_583)">
      <path id="Path_583-2" data-name="Path 583" d="M3.5,0A3.5,3.5,0,1,1,0,3.5,3.5,3.5,0,0,1,3.5,0Z" transform="translate(6.33)" fill="#c75ec3"/>
    </g>
  </g>
</svg>
