<svg xmlns="http://www.w3.org/2000/svg" xmlns:xlink="http://www.w3.org/1999/xlink" width="37" height="26.833" viewBox="0 0 37 26.833">
  <defs>
    <filter id="folder-open" x="0" y="0" width="37" height="26.833" filterUnits="userSpaceOnUse">
      <feOffset dx="5" dy="5" input="SourceAlpha"/>
      <feGaussianBlur stdDeviation="0.5" result="blur"/>
      <feFlood flood-color="#fff" flood-opacity="0.102"/>
      <feComposite operator="in" in2="blur"/>
      <feComposite in="SourceGraphic"/>
    </filter>
  </defs>
  <g transform="matrix(1, 0, 0, 1, 0, 0)" filter="url(#folder-open)">
    <path id="folder-open-2" data-name="folder-open" d="M30.325,76.078,26.49,82.652a3.389,3.389,0,0,1-2.927,1.681H2.384a1.271,1.271,0,0,1-1.1-1.911l3.835-6.574a3.389,3.389,0,0,1,2.927-1.681H29.227A1.271,1.271,0,0,1,30.325,76.078ZM8.049,72.472H25.417V69.931a2.542,2.542,0,0,0-2.542-2.542H14.4L11.014,64H2.542A2.542,2.542,0,0,0,0,66.542V81.265l3.658-6.27A5.1,5.1,0,0,1,8.049,72.472Z" transform="translate(0 -64)" fill="#f1f1f1"/>
  </g>
</svg>
