<svg xmlns="http://www.w3.org/2000/svg" xmlns:xlink="http://www.w3.org/1999/xlink" width="31.427" height="37.178" viewBox="0 0 31.427 37.178">
  <defs>
    <filter id="running-solid" x="0" y="0" width="31.427" height="37.178" filterUnits="userSpaceOnUse">
      <feOffset dx="5" dy="5" input="SourceAlpha"/>
      <feGaussianBlur stdDeviation="0.5" result="blur"/>
      <feFlood flood-color="#ffa200" flood-opacity="0.2"/>
      <feComposite operator="in" in2="blur"/>
      <feComposite in="SourceGraphic"/>
    </filter>
  </defs>
  <g transform="matrix(1, 0, 0, 1, 0, 0)" filter="url(#running-solid)">
    <path id="running-solid-2" data-name="running-solid" d="M16.3,5.752a2.876,2.876,0,1,0-2.876-2.876A2.876,2.876,0,0,0,16.3,5.752ZM6.812,19.023l-.887,2.068H1.917a1.917,1.917,0,1,0,0,3.835H6.558A2.87,2.87,0,0,0,9.2,23.183l.527-1.23-.639-.377A5.706,5.706,0,0,1,6.812,19.023Zm16.2-5.6H20.371L18.81,10.231a5.75,5.75,0,0,0-3.7-3.052L10.849,5.912A5.728,5.728,0,0,0,6,6.939L3.628,8.761A1.917,1.917,0,0,0,5.961,11.8L8.339,9.981a1.866,1.866,0,0,1,1.514-.368l.881.262L8.489,15.112a3.845,3.845,0,0,0,1.576,4.812l5.092,3.006-1.646,5.257a1.917,1.917,0,1,0,3.659,1.146l1.9-6.056a2.888,2.888,0,0,0-1.3-3.259L14.1,17.853l1.876-4.691,1.215,2.482a2.894,2.894,0,0,0,2.583,1.611h3.235a1.917,1.917,0,1,0,0-3.834Z" fill="#ffa200"/>
  </g>
</svg>
